<svg width="18.000000" height="18.000000" viewBox="0 0 18 18" fill="none" xmlns="http://www.w3.org/2000/svg" xmlns:xlink="http://www.w3.org/1999/xlink">
	<desc>
			Created with Pixso.
	</desc>
	<defs/>
	<path d="M2 12.6637L2 16L5.3363 16L12.009 9.32736L14.4017 6.93469L14.4025 6.93398C14.7324 6.60414 14.8973 6.43916 14.9592 6.24886C15.0135 6.08133 15.0137 5.90088 14.9592 5.73337C14.8973 5.54292 14.7321 5.37769 14.4017 5.04738L12.9506 3.59625C12.6217 3.26735 12.4569 3.10257 12.2668 3.04082C12.0994 2.98639 11.9189 2.98639 11.7513 3.04082C11.5612 3.10262 11.3962 3.26758 11.0669 3.59695L11.0654 3.59836L8.67273 5.99106L2 12.6637ZM8.67273 5.99106L12.009 9.32736" stroke="#CDCDCD" stroke-opacity="1.000000" stroke-width="1.000000" stroke-linejoin="round"/>
</svg>
