<svg width="18.000000" height="18.000000" viewBox="0 0 18 18" fill="none" xmlns="http://www.w3.org/2000/svg" xmlns:xlink="http://www.w3.org/1999/xlink">
	<desc>
			Created with Pixso.
	</desc>
	<defs>
		<clipPath id="clip3_28">
			<rect width="18.000000" height="18.000000" fill="white" fill-opacity="0"/>
		</clipPath>
	</defs>
	<rect width="18.000000" height="18.000000" fill="#FFFFFF" fill-opacity="0"/>
	<g clip-path="url(#clip3_28)">
		<path d="M5.36987 6L12.6301 6C13.504 6 14.1927 6.74385 14.1259 7.61505L13.6066 14.3651C13.5464 15.1465 12.8948 15.75 12.111 15.75L5.88904 15.75C5.10522 15.75 4.45361 15.1465 4.39343 14.3651L3.87427 7.61505C3.80725 6.74385 4.49609 6 5.36987 6Z" stroke="#CDCDCD" stroke-opacity="1.000000" stroke-width="1.000000"/>
		<path d="M14.625 3.75L3.375 3.75" stroke="#CDCDCD" stroke-opacity="1.000000" stroke-width="1.000000" stroke-linecap="round"/>
		<path d="M8.25 1.5L9.75 1.5C10.1642 1.5 10.5 1.83578 10.5 2.25L10.5 3.75L7.5 3.75L7.5 2.25C7.5 1.83578 7.83582 1.5 8.25 1.5Z" stroke="#CDCDCD" stroke-opacity="1.000000" stroke-width="1.000000"/>
		<path d="M10.5 9L10.5 12.75" stroke="#CDCDCD" stroke-opacity="1.000000" stroke-width="1.000000" stroke-linecap="round"/>
		<path d="M7.5 9L7.5 12.75" stroke="#CDCDCD" stroke-opacity="1.000000" stroke-width="1.000000" stroke-linecap="round"/>
	</g>
</svg>
